<?xml version="1.0" standalone="no"?>
<!DOCTYPE svg PUBLIC "-//W3C//DTD SVG 20010904//EN"
 "http://www.w3.org/TR/2001/REC-SVG-20010904/DTD/svg10.dtd">
<svg version="1.0" xmlns="http://www.w3.org/2000/svg"
 width="558.000000pt" height="447.000000pt" viewBox="0 0 558.000000 447.000000"
 preserveAspectRatio="xMidYMid meet">

<g transform="translate(0.000000,447.000000) scale(0.100000,-0.100000)"
fill="#000000" stroke="none">
<path d="M2988 4193 c-49 -66 -71 -111 -64 -137 8 -32 75 -106 95 -106 25 0
68 36 86 71 13 24 22 29 50 29 72 0 343 66 328 80 -23 21 -273 84 -413 104
-45 6 -46 6 -82 -41z"/>
<path d="M2452 4223 c-9 -3 -10 -9 -3 -17 16 -20 -2 -34 -54 -43 -44 -8 -50
-11 -50 -33 0 -24 3 -25 90 -33 97 -9 195 -44 195 -71 0 -8 -14 -24 -31 -36
-23 -17 -29 -29 -27 -49 3 -22 8 -26 41 -29 34 -3 37 -1 37 21 0 19 8 28 31
36 18 6 40 11 50 11 27 0 35 21 14 37 -14 10 -18 24 -16 55 3 51 -7 58 -87 58
-55 0 -66 3 -90 28 l-27 27 28 3 c36 4 34 17 -4 31 -33 11 -75 13 -97 4z"/>
<path d="M2219 4172 c-9 -4 -30 -24 -48 -44 -52 -60 -140 -97 -246 -105 -83
-6 -96 -10 -165 -51 -257 -151 -507 -385 -668 -625 -78 -115 -154 -256 -146
-269 16 -29 163 -230 236 -324 103 -132 129 -146 341 -179 48 -8 101 -54 132
-116 26 -51 51 -74 135 -122 36 -21 56 -40 58 -54 2 -13 -15 -49 -43 -90 -53
-81 -60 -125 -27 -168 16 -21 22 -42 22 -81 0 -72 12 -98 62 -134 24 -18 56
-55 74 -88 18 -31 60 -91 93 -132 77 -96 87 -132 82 -285 -10 -291 -11 -282
38 -363 33 -55 47 -92 57 -149 15 -85 39 -132 75 -150 13 -6 56 -29 94 -50 39
-21 73 -39 78 -41 17 -8 5 30 -24 77 -38 60 -48 107 -49 224 l0 87 39 43 c21
23 52 65 68 92 18 31 48 62 76 81 26 17 50 34 53 37 3 3 -2 29 -11 58 -30 88
-8 195 52 264 20 22 114 100 187 154 25 18 46 40 46 48 0 8 16 35 35 60 37 48
41 66 26 106 -15 39 -73 100 -81 86 -4 -6 -8 -70 -9 -142 -1 -123 -8 -157 -32
-157 -5 0 -9 70 -9 155 0 97 4 155 10 155 6 0 10 5 10 10 0 6 -14 0 -31 -12
-34 -25 -73 -87 -83 -131 -10 -43 12 -107 50 -145 19 -19 34 -37 34 -41 0 -4
-21 -22 -46 -40 l-46 -32 -43 25 c-55 33 -101 86 -116 134 -16 55 -7 178 16
226 10 22 36 57 57 79 40 43 44 66 4 28 l-23 -22 -69 27 c-167 66 -272 169
-292 287 -7 37 -13 44 -57 67 -62 31 -147 31 -250 0 -106 -33 -146 -36 -172
-10 -13 11 -23 31 -23 43 0 38 -36 83 -84 105 -25 12 -46 25 -46 30 0 4 9 22
20 40 37 60 32 64 -77 56 -92 -6 -100 -5 -133 18 -65 44 -73 143 -16 197 28
26 215 91 262 91 35 0 57 -20 94 -88 17 -32 32 -47 45 -47 17 0 22 11 32 67 7
37 17 77 23 88 12 22 50 44 95 54 36 8 120 67 135 96 10 19 8 20 -64 20 -70 0
-106 5 -231 32 -77 16 -208 59 -201 65 6 6 15 7 141 12 63 3 66 4 30 10 -38 7
-162 56 -214 85 -21 12 -6 13 113 8 l138 -5 -25 25 c-18 18 -32 23 -58 21 -25
-3 -58 8 -128 42 -51 25 -92 47 -90 49 2 1 48 0 101 -3 53 -3 107 -3 120 1 22
6 22 6 -3 7 -47 2 -248 86 -263 110 -4 5 10 7 31 5 343 -38 494 -42 714 -19
l143 15 23 -22 c12 -12 26 -18 30 -14 4 4 1 12 -7 16 -62 37 -53 45 35 28 42
-7 79 -21 96 -35 33 -28 61 -29 117 -3 47 21 54 47 27 99 -21 41 -119 128
-161 141 -60 20 -136 8 -196 -30 -104 -66 -157 -91 -206 -97 -45 -5 -53 -3
-76 20 -14 14 -26 33 -26 41 0 44 142 110 338 157 82 20 93 25 90 43 -2 14
-17 26 -45 36 -59 22 -99 54 -125 100 -24 42 -24 42 -49 32z"/>
<path d="M3868 3879 c-53 -26 -58 -32 -58 -61 0 -18 4 -38 8 -44 4 -5 37 -10
73 -10 56 1 71 -3 101 -26 24 -18 42 -25 57 -21 19 5 22 11 19 52 -3 43 -6 48
-66 93 -35 27 -66 47 -70 47 -4 -1 -33 -15 -64 -30z"/>
<path d="M3887 3724 c-13 -13 -7 -24 14 -24 11 0 19 5 17 12 -5 14 -22 21 -31
12z"/>
<path d="M4152 3716 c-8 -6 -27 -23 -42 -38 -15 -16 -35 -28 -44 -28 -8 0 -39
-9 -68 -20 -29 -10 -72 -21 -95 -23 -45 -4 -72 -17 -35 -17 11 0 43 4 69 9 26
6 79 12 117 14 l68 3 -28 -23 c-52 -42 -155 -95 -175 -90 -10 3 -19 2 -19 -2
0 -9 -55 -28 -105 -36 -81 -13 -95 -17 -95 -27 0 -6 7 -7 18 -3 9 4 49 13 89
21 40 7 80 16 90 21 10 4 52 6 93 3 l75 -5 -37 -19 c-21 -11 -38 -22 -38 -25
0 -3 25 -19 56 -35 58 -31 97 -72 115 -124 16 -46 43 -50 85 -13 30 26 43 31
89 31 51 0 77 -11 55 -25 -19 -12 -10 -33 35 -83 43 -48 46 -49 90 -44 73 8
99 -35 53 -93 l-21 -27 -111 4 c-86 4 -121 9 -156 26 -57 27 -73 27 -85 0 -15
-34 -75 -51 -132 -36 -63 15 -133 82 -133 127 0 53 -29 58 -146 23 -54 -16
-125 -35 -156 -42 -91 -18 -156 -74 -268 -229 -52 -72 -96 -135 -98 -141 -2
-5 22 -21 52 -35 64 -30 108 -81 142 -163 34 -81 32 -142 -7 -210 -23 -40 -28
-57 -19 -66 16 -16 176 -20 286 -7 88 11 97 10 136 -10 27 -14 51 -19 69 -15
24 5 31 1 44 -24 22 -42 19 -52 -24 -94 l-39 -38 51 -105 c65 -134 70 -182 32
-287 -31 -84 -31 -77 23 -201 22 -49 43 -106 47 -125 4 -19 22 -53 39 -74 17
-22 42 -71 56 -110 l25 -70 130 -67 c72 -38 135 -68 141 -69 13 0 110 146 172
260 45 83 108 229 141 330 65 198 109 526 96 713 l-7 107 -37 0 c-43 0 -50 9
-101 135 -24 60 -59 121 -107 185 -60 81 -71 102 -76 146 -5 42 -2 55 12 68
18 16 20 14 44 -26 14 -24 58 -79 97 -123 40 -46 85 -110 105 -150 39 -81 43
-67 15 48 -90 360 -255 662 -512 940 -99 107 -116 120 -136 103z"/>
<path d="M2328 3609 c-3 -8 -70 -13 -201 -17 -116 -3 -197 -9 -197 -15 0 -9
236 -4 337 7 28 3 47 0 56 -9 8 -7 25 -11 40 -8 30 6 35 20 12 29 -8 4 -12 10
-9 15 3 5 -4 9 -15 9 -10 0 -21 -5 -23 -11z"/>
<path d="M1860 3580 c0 -5 9 -10 20 -10 11 0 20 5 20 10 0 6 -9 10 -20 10 -11
0 -20 -4 -20 -10z"/>
<path d="M1940 3530 c0 -5 5 -10 10 -10 6 0 10 5 10 10 0 6 -4 10 -10 10 -5 0
-10 -4 -10 -10z"/>
<path d="M2110 3530 c0 -5 5 -10 11 -10 5 0 7 5 4 10 -3 6 -8 10 -11 10 -2 0
-4 -4 -4 -10z"/>
<path d="M2279 3496 c-2 -3 -41 -6 -86 -7 -115 -4 -135 -17 -27 -18 99 -1 154
6 154 20 0 9 -33 13 -41 5z"/>
<path d="M1855 3480 c-16 -7 -12 -9 18 -9 20 -1 37 3 37 7 0 11 -31 12 -55 2z"/>
<path d="M2325 3470 c-3 -5 3 -10 14 -10 12 0 21 -4 21 -10 0 -5 9 -10 19 -10
11 0 23 5 26 10 3 6 -5 10 -19 10 -14 0 -28 5 -31 10 -3 6 -10 10 -15 10 -5 0
-12 -4 -15 -10z"/>
<path d="M2316 3431 c-18 -7 -18 -8 -2 -14 19 -8 36 -1 36 14 0 10 -7 11 -34
0z"/>
<path d="M2193 3413 c15 -2 39 -2 55 0 15 2 2 4 -28 4 -30 0 -43 -2 -27 -4z"/>
<path d="M1843 3403 c15 -2 37 -2 50 0 12 2 0 4 -28 4 -27 0 -38 -2 -22 -4z"/>
<path d="M2018 3403 c23 -2 59 -2 80 0 20 2 1 4 -43 4 -44 0 -61 -2 -37 -4z"/>
<path d="M2360 3400 c0 -19 31 -23 48 -6 15 15 14 16 -16 16 -18 0 -32 -5 -32
-10z"/>
<path d="M3903 3393 c-22 -9 -14 -21 17 -25 24 -4 30 -1 28 11 -3 17 -24 23
-45 14z"/>
<path d="M2150 3375 l-85 -13 75 1 c83 0 110 5 110 18 0 5 -3 8 -7 8 -5 -1
-46 -7 -93 -14z"/>
<path d="M3816 3375 c-3 -8 -1 -15 4 -15 13 0 22 18 11 24 -5 3 -11 -1 -15 -9z"/>
<path d="M3768 3353 c7 -3 16 -2 19 1 4 3 -2 6 -13 5 -11 0 -14 -3 -6 -6z"/>
<path d="M3660 3340 c0 -5 18 -10 39 -10 22 0 43 5 46 10 4 6 -12 10 -39 10
-25 0 -46 -4 -46 -10z"/>
<path d="M3977 3329 c-16 -9 -14 -14 15 -49 23 -28 41 -40 60 -40 36 0 44 17
20 43 -35 37 -75 57 -95 46z"/>
<path d="M3583 3323 c9 -2 23 -2 30 0 6 3 -1 5 -18 5 -16 0 -22 -2 -12 -5z"/>
<path d="M1853 3303 c15 -2 37 -2 50 0 12 2 0 4 -28 4 -27 0 -38 -2 -22 -4z"/>
<path d="M2128 3303 c12 -2 30 -2 40 0 9 3 -1 5 -23 4 -22 0 -30 -2 -17 -4z"/>
<path d="M2068 3293 c7 -3 16 -2 19 1 4 3 -2 6 -13 5 -11 0 -14 -3 -6 -6z"/>
<path d="M3625 3290 c-4 -6 11 -10 39 -10 25 0 48 5 51 10 4 6 -11 10 -39 10
-25 0 -48 -4 -51 -10z"/>
<path d="M3513 3273 c15 -2 37 -2 50 0 12 2 0 4 -28 4 -27 0 -38 -2 -22 -4z"/>
<path d="M3630 3229 c-25 -4 -71 -11 -102 -14 -50 -6 -58 -9 -58 -27 0 -20 4
-21 83 -16 87 6 147 27 147 53 0 16 -4 17 -70 4z"/>
<path d="M3226 2628 c-15 -13 -18 -27 -14 -61 9 -82 75 -197 112 -197 16 0 38
50 42 93 1 15 -2 27 -7 27 -5 0 -9 -11 -9 -25 0 -16 -6 -25 -16 -25 -10 0 -13
6 -10 18 5 16 -1 68 -15 122 -3 9 3 14 14 14 15 -2 16 1 5 13 -8 10 -14 11
-16 4 -5 -16 -16 -14 -44 12 -23 21 -25 22 -42 5z m114 -223 c0 -7 -7 -15 -15
-19 -16 -6 -19 3 -9 28 7 18 24 12 24 -9z"/>
<path d="M3350 2544 c0 -8 5 -12 10 -9 6 4 8 11 5 16 -9 14 -15 11 -15 -7z"/>
<path d="M2484 2289 c-7 -12 15 -31 28 -23 5 3 15 -2 24 -10 16 -16 54 -22 54
-8 -1 36 -88 70 -106 41z"/>
<path d="M2856 2011 c-4 -5 1 -8 9 -7 21 3 31 16 12 16 -9 0 -18 -4 -21 -9z"/>
</g>
</svg>
